<?xml version="1.0" encoding="UTF-8"?>
<!DOCTYPE svg PUBLIC "-//W3C//DTD SVG 1.1//EN" "http://www.w3.org/Graphics/SVG/1.1/DTD/svg11.dtd">
<svg xmlns="http://www.w3.org/2000/svg" version="1.1" width="5000px" height="5000px" style="shape-rendering:geometricPrecision; text-rendering:geometricPrecision; image-rendering:optimizeQuality; fill-rule:evenodd; clip-rule:evenodd" xmlns:xlink="http://www.w3.org/1999/xlink">
<g><path style="opacity:1" fill="#3dc1a8" d="M -0.5,-0.5 C 1666.17,-0.5 3332.83,-0.5 4999.5,-0.5C 4999.5,1666.17 4999.5,3332.83 4999.5,4999.5C 3332.83,4999.5 1666.17,4999.5 -0.5,4999.5C -0.5,3332.83 -0.5,1666.17 -0.5,-0.5 Z"/></g>
<g><path style="opacity:1" fill="#fefefe" d="M 2430.5,749.5 C 2708.65,744.28 2958.32,824.78 3179.5,991C 3393.7,1158.25 3535.37,1373.92 3604.5,1638C 3586.01,1638.97 3567.68,1637.64 3549.5,1634C 3503.36,1623.17 3457.36,1611.84 3411.5,1600C 3340.61,1587.49 3269.94,1573.82 3199.5,1559C 3133.52,1544.75 3069.18,1525.09 3006.5,1500C 2977.25,1485.11 2951.75,1465.28 2930,1440.5C 2921.67,1430.17 2913.33,1419.83 2905,1409.5C 2875.89,1366.29 2845.56,1323.95 2814,1282.5C 2826.99,1351.22 2824.99,1419.55 2808,1487.5C 2796.5,1519.34 2777,1545.18 2749.5,1565C 2724.98,1582.92 2697.65,1594.25 2667.5,1599C 2594.47,1602.98 2554.3,1568.48 2547,1495.5C 2545.29,1469.61 2546.96,1443.95 2552,1418.5C 2561.71,1379 2572.04,1339.66 2583,1300.5C 2590.5,1269.54 2592.83,1238.21 2590,1206.5C 2587.69,1190.91 2583.36,1175.91 2577,1161.5C 2575.74,1151.93 2579.9,1146.6 2589.5,1145.5C 2593.96,1145.15 2597.46,1146.81 2600,1150.5C 2614.15,1180.6 2619.82,1212.26 2617,1245.5C 2614.76,1275.38 2609.42,1304.72 2601,1333.5C 2593.84,1358.46 2586.84,1383.46 2580,1408.5C 2573.45,1435.12 2570.78,1462.12 2572,1489.5C 2573.31,1508.75 2578.64,1526.75 2588,1543.5C 2599.42,1560.3 2615.25,1570.13 2635.5,1573C 2694.28,1574.52 2740.11,1551.02 2773,1502.5C 2780.59,1488.72 2785.59,1474.05 2788,1458.5C 2799.87,1399.02 2799.2,1339.69 2786,1280.5C 2779.3,1253.39 2769.63,1227.39 2757,1202.5C 2731.56,1164.05 2701.4,1129.55 2666.5,1099C 2630.53,1069.68 2589.87,1049.35 2544.5,1038C 2521.02,1033.14 2497.35,1031.8 2473.5,1034C 2426.38,1041.6 2380.72,1054.26 2336.5,1072C 2302.78,1087.73 2272.94,1108.9 2247,1135.5C 2241.45,1141.94 2237.45,1149.27 2235,1157.5C 2234.76,1170.61 2232.43,1183.27 2228,1195.5C 2211.73,1212.06 2192.56,1224.23 2170.5,1232C 2136.95,1243.07 2103.62,1254.74 2070.5,1267C 2057.72,1272.8 2045.72,1279.8 2034.5,1288C 2013.87,1285.53 1994.54,1289.19 1976.5,1299C 1960.82,1311.99 1955.65,1328.49 1961,1348.5C 1965.54,1366.68 1975.21,1381.35 1990,1392.5C 2005.72,1447.56 2039.89,1486.39 2092.5,1509C 2127.53,1523.17 2163.86,1532.17 2201.5,1536C 2213.4,1543.12 2224.4,1551.45 2234.5,1561C 2248.15,1570.42 2262.81,1572.08 2278.5,1566C 2292.66,1559.17 2306.32,1551.5 2319.5,1543C 2326.17,1539.22 2333.17,1536.22 2340.5,1534C 2358.46,1531.43 2372.96,1537.26 2384,1551.5C 2389.23,1575.36 2400.4,1595.86 2417.5,1613C 2434.74,1627.61 2454.74,1635.61 2477.5,1637C 2485.37,1639.55 2492.2,1643.71 2498,1649.5C 2502.06,1654.56 2505.72,1659.89 2509,1665.5C 2514.75,1676.66 2520.75,1687.66 2527,1698.5C 2548.67,1727.5 2570.33,1756.5 2592,1785.5C 2612.77,1819.8 2626.44,1856.8 2633,1896.5C 2639.12,1932.67 2644.12,1969.01 2648,2005.5C 2656.24,2070.56 2675.91,2131.89 2707,2189.5C 2735.18,2237.94 2771.02,2280.11 2814.5,2316C 2838.5,2333 2862.5,2350 2886.5,2367C 2912.71,2390.25 2929.55,2419.08 2937,2453.5C 2938.99,2463.78 2940.66,2474.11 2942,2484.5C 2942.76,2526.54 2944.43,2568.54 2947,2610.5C 2954.67,2697.2 2962.67,2783.87 2971,2870.5C 2973.73,2904.48 2975.73,2938.48 2977,2972.5C 2892.01,3013.89 2803.18,3044.22 2710.5,3063.5C 2703,3030.2 2700.84,2996.53 2704,2962.5C 2705.34,2949.46 2709.01,2937.13 2715,2925.5C 2719.74,2917.04 2726.91,2911.87 2736.5,2910C 2749.78,2909.23 2762.78,2910.9 2775.5,2915C 2812.38,2928.44 2849.04,2942.44 2885.5,2957C 2897.52,2961.51 2909.86,2964.68 2922.5,2966.5C 2908.8,2850.29 2895.97,2733.95 2884,2617.5C 2879.5,2574.95 2877.5,2532.29 2878,2489.5C 2876.52,2467.71 2869.85,2447.71 2858,2429.5C 2853.31,2424.56 2848.47,2419.73 2843.5,2415C 2816.61,2396.77 2790.27,2377.77 2764.5,2358C 2687.95,2292.8 2632.78,2212.63 2599,2117.5C 2591.86,2097.41 2585.53,2077.08 2580,2056.5C 2568.07,2005.78 2554.74,1955.44 2540,1905.5C 2531.93,1882.53 2518.77,1863.03 2500.5,1847C 2485.17,1834.33 2469.83,1821.67 2454.5,1809C 2446.97,1801.8 2439.8,1794.3 2433,1786.5C 2396.42,1736.37 2363.09,1684.03 2333,1629.5C 2324.95,1645.66 2319.28,1662.66 2316,1680.5C 2311.33,1709.99 2308.5,1739.66 2307.5,1769.5C 2273.08,1772.22 2239.75,1779.72 2207.5,1792C 2197.94,1795.89 2189.77,1801.73 2183,1809.5C 2171.19,1835.81 2156.86,1860.47 2140,1883.5C 2136.2,1888.3 2132.03,1892.8 2127.5,1897C 2117.5,1904.33 2107.5,1911.67 2097.5,1919C 2085.42,1928.92 2081.58,1941.42 2086,1956.5C 2087.33,1961.17 2088.67,1965.83 2090,1970.5C 2097.61,1989.05 2106.28,2007.05 2116,2024.5C 2125.5,2034.67 2136.67,2042.5 2149.5,2048C 2166.6,2052.29 2183.6,2056.95 2200.5,2062C 2206.22,2063.72 2209.88,2067.38 2211.5,2073C 2208.67,2084.83 2204.84,2096.33 2200,2107.5C 2196.36,2118.14 2198.53,2127.31 2206.5,2135C 2204.31,2138.69 2201.31,2141.53 2197.5,2143.5C 2202.17,2145.83 2206.83,2148.17 2211.5,2150.5C 2210.4,2154.44 2210.23,2158.44 2211,2162.5C 2213.46,2170.2 2215.29,2178.04 2216.5,2186C 2216.67,2188.92 2216,2191.58 2214.5,2194C 2217.5,2193.84 2220.5,2193.34 2223.5,2192.5C 2222.88,2201.89 2221.71,2211.22 2220,2220.5C 2213.92,2246.98 2208.92,2273.65 2205,2300.5C 2204.33,2324.17 2204.33,2347.83 2205,2371.5C 2208.59,2395.31 2212.92,2418.98 2218,2442.5C 2219.83,2465.61 2222.5,2488.61 2226,2511.5C 2237.17,2550.19 2252.51,2587.19 2272,2622.5C 2288.07,2649.58 2303.73,2676.91 2319,2704.5C 2332.61,2730.34 2343.28,2757.34 2351,2785.5C 2353.31,2799.8 2355.31,2814.14 2357,2828.5C 2358.03,2835.24 2361.36,2836.91 2367,2833.5C 2366.69,2835.82 2366.03,2838.16 2365,2840.5C 2364.34,2850.86 2363.51,2861.19 2362.5,2871.5C 2367.98,2871.08 2372.32,2873.08 2375.5,2877.5C 2371.47,2883.7 2367.63,2890.04 2364,2896.5C 2363.5,2900.15 2363.33,2903.82 2363.5,2907.5C 2366.9,2907.73 2368.9,2909.56 2369.5,2913C 2370.94,2913.22 2372.27,2913.72 2373.5,2914.5C 2369.18,2925.41 2367.18,2936.74 2367.5,2948.5C 2368.05,2964.32 2369.89,2979.98 2373,2995.5C 2373.32,3014.02 2374.16,3032.52 2375.5,3051C 2375.26,3063.27 2372.93,3075.1 2368.5,3086.5C 2207.89,3074.35 2056.56,3030.18 1914.5,2954C 1705.95,2840.45 1545.11,2679.28 1432,2470.5C 1316.98,2249.08 1274.65,2014.41 1305,1766.5C 1343.67,1495.32 1460.5,1264.82 1655.5,1075C 1872.81,871.07 2131.15,762.57 2430.5,749.5 Z"/></g>
<g><path style="opacity:1" fill="#b9e8df" d="M 3376.5,1061.5 C 3376.5,1061.83 3376.5,1062.17 3376.5,1062.5C 3373.37,1059.87 3370.37,1057.04 3367.5,1054C 3371.14,1055.45 3374.14,1057.95 3376.5,1061.5 Z"/></g>
<g><path style="opacity:1" fill="#fefefe" d="M 3376.5,1061.5 C 3578.14,1251.69 3706.31,1483.69 3761,1757.5C 3805,1998.52 3783.67,2233.52 3697,2462.5C 3598.9,2710.24 3440.4,2909.74 3221.5,3061C 2975.55,3224.91 2704.55,3297.91 2408.5,3280C 2105.69,3255.27 1843.36,3140.6 1621.5,2936C 1425.75,2750.09 1299.25,2524.26 1242,2258.5C 1225.85,2179.33 1217.35,2099.33 1216.5,2018.5C 1216.17,2004.66 1216.5,1990.99 1217.5,1977.5C 1235.41,2288.99 1350.58,2557.66 1563,2783.5C 1783.67,3009.23 2052.17,3136.4 2368.5,3165C 2650.03,3184.45 2909.36,3118.45 3146.5,2967C 3385.76,2808.12 3553.26,2592.95 3649,2321.5C 3729.79,2077.31 3736.79,1830.98 3670,1582.5C 3613.64,1384.67 3515.81,1211.34 3376.5,1062.5C 3376.5,1062.17 3376.5,1061.83 3376.5,1061.5 Z"/></g>
<g><path style="opacity:1" fill="#3dc1a8" d="M 1636.5,1839.5 C 1681.5,1839.33 1726.5,1839.5 1771.5,1840C 1777.25,1842.08 1781.41,1845.91 1784,1851.5C 1784.5,1912.5 1784.67,1973.5 1784.5,2034.5C 1843.5,2034.33 1902.5,2034.5 1961.5,2035C 1970.19,2035.77 1976.03,2040.27 1979,2048.5C 1979.67,2092.5 1979.67,2136.5 1979,2180.5C 1977.77,2186.79 1974.27,2191.29 1968.5,2194C 1907.23,2195.49 1845.89,2195.99 1784.5,2195.5C 1784.98,2256.55 1784.48,2317.55 1783,2378.5C 1780.23,2384.94 1775.39,2388.77 1768.5,2390C 1724.83,2390.67 1681.17,2390.67 1637.5,2390C 1632.01,2388.01 1627.84,2384.51 1625,2379.5C 1623.51,2318.21 1623.01,2256.88 1623.5,2195.5C 1562.44,2195.99 1501.44,2195.49 1440.5,2194C 1434.16,2191.16 1430.33,2186.33 1429,2179.5C 1428.33,2135.83 1428.33,2092.17 1429,2048.5C 1431.44,2042.39 1435.61,2037.89 1441.5,2035C 1502.5,2034.5 1563.5,2034.33 1624.5,2034.5C 1624.33,1973.5 1624.5,1912.5 1625,1851.5C 1627.69,1846.31 1631.52,1842.31 1636.5,1839.5 Z"/></g>
<g><path style="opacity:1" fill="#b3e6dc" d="M 1217.5,1977.5 C 1216.5,1990.99 1216.17,2004.66 1216.5,2018.5C 1215.34,2003.34 1215.17,1988.01 1216,1972.5C 1216.33,1971.5 1216.67,1970.5 1217,1969.5C 1217.5,1972.15 1217.66,1974.81 1217.5,1977.5 Z"/></g>
<g><path style="opacity:1" fill="#fefefe" d="M 3287.5,2267.5 C 3288.98,2271.23 3289.81,2275.23 3290,2279.5C 3291.52,2303.42 3288.52,2326.75 3281,2349.5C 3272.81,2374.89 3262.14,2399.22 3249,2422.5C 3238,2442.17 3227,2461.83 3216,2481.5C 3215.41,2482.48 3215.74,2483.15 3217,2483.5C 3233.1,2488.8 3249.6,2490.63 3266.5,2489C 3285.16,2487.43 3303.49,2484.1 3321.5,2479C 3339.97,2473.06 3358.31,2466.73 3376.5,2460C 3430.4,2437.38 3484.07,2414.22 3537.5,2390.5C 3527.52,2415.48 3516.02,2440.15 3503,2464.5C 3418.31,2624.38 3302.81,2758.04 3156.5,2865.5C 3156.17,2863.5 3155.83,2861.5 3155.5,2859.5C 3161.09,2775.92 3164.92,2692.25 3167,2608.5C 3169.64,2564.29 3179.97,2521.95 3198,2481.5C 3216.38,2443.74 3235.05,2406.07 3254,2368.5C 3266.8,2342.89 3276.8,2316.22 3284,2288.5C 3285.21,2281.5 3286.38,2274.5 3287.5,2267.5 Z"/></g>
<g><path style="opacity:1" fill="#fdfefe" d="M 2569.5,3069.5 C 2571.61,3070.47 2573.94,3070.8 2576.5,3070.5C 2576.5,3075.5 2576.5,3080.5 2576.5,3085.5C 2546.39,3088.53 2516.06,3090.19 2485.5,3090.5C 2488.75,3072.25 2491.58,3053.91 2494,3035.5C 2496,3026.83 2498,3018.17 2500,3009.5C 2508.3,2989.9 2516.97,2970.57 2526,2951.5C 2528.32,2952.49 2529.99,2954.15 2531,2956.5C 2531.33,2959.5 2531.67,2962.5 2532,2965.5C 2534.74,2966.28 2537.57,2966.78 2540.5,2967C 2541.43,2967.39 2542.09,2968.05 2542.5,2969C 2547.68,3003.54 2556.68,3037.04 2569.5,3069.5 Z"/></g>
<g><path style="opacity:1" fill="#9bded2" d="M 2569.5,3069.5 C 2572.17,3069.5 2574.83,3069.5 2577.5,3069.5C 2577.82,3075.03 2577.49,3080.36 2576.5,3085.5C 2576.5,3080.5 2576.5,3075.5 2576.5,3070.5C 2573.94,3070.8 2571.61,3070.47 2569.5,3069.5 Z"/></g>
<g><path style="opacity:1" fill="#fefefe" d="M 1441.5,3746.5 C 1490.81,3744.61 1538.48,3752.44 1584.5,3770C 1593.81,3773.83 1602.47,3778.67 1610.5,3784.5C 1600.72,3811.06 1591.22,3837.73 1582,3864.5C 1581.29,3866.85 1580.12,3868.85 1578.5,3870.5C 1534.38,3848.17 1487.72,3839.34 1438.5,3844C 1389.29,3852.22 1356.12,3879.72 1339,3926.5C 1328.67,3958.11 1325.67,3990.45 1330,4023.5C 1331.63,4055.74 1341.97,4084.74 1361,4110.5C 1383.9,4135.7 1412.4,4149.87 1446.5,4153C 1495.92,4156.62 1542.92,4147.79 1587.5,4126.5C 1598.46,4155.2 1608.29,4184.2 1617,4213.5C 1606.31,4219.62 1595.14,4224.79 1583.5,4229C 1524.85,4248.46 1464.85,4254.13 1403.5,4246C 1301.75,4228.58 1241.25,4169.08 1222,4067.5C 1217.59,4044.55 1215.75,4021.38 1216.5,3998C 1214.27,3930.69 1234.77,3871.52 1278,3820.5C 1313.67,3783.08 1357.17,3759.91 1408.5,3751C 1419.63,3749.4 1430.63,3747.9 1441.5,3746.5 Z"/></g>
<g><path style="opacity:1" fill="#fefefe" d="M 3638.5,3766.5 C 3640.5,3766.5 3642.5,3766.5 3644.5,3766.5C 3644.5,3802.17 3644.5,3837.83 3644.5,3873.5C 3685.83,3873.5 3727.17,3873.5 3768.5,3873.5C 3768.5,3902.5 3768.5,3931.5 3768.5,3960.5C 3727.17,3960.5 3685.83,3960.5 3644.5,3960.5C 3644.33,4008.83 3644.5,4057.17 3645,4105.5C 3647.74,4146.57 3669.57,4164.74 3710.5,4160C 3730.37,4159.49 3749.53,4155.66 3768,4148.5C 3774.07,4175.3 3778.73,4202.3 3782,4229.5C 3735.58,4247.61 3687.75,4252.44 3638.5,4244C 3589.08,4232.91 3558.58,4202.74 3547,4153.5C 3543.8,4138.66 3541.8,4123.66 3541,4108.5C 3540.5,3999.83 3540.33,3891.17 3540.5,3782.5C 3573.36,3777.58 3606.03,3772.24 3638.5,3766.5 Z"/></g>
<g><path style="opacity:1" fill="#fefefe" d="M 1790.5,3864.5 C 1821.79,3862.89 1852.79,3865.05 1883.5,3871C 1941.78,3887.3 1972.95,3925.8 1977,3986.5C 1978.45,4067.49 1978.95,4148.49 1978.5,4229.5C 1942.44,4236.75 1906.1,4242.25 1869.5,4246C 1836.09,4248.59 1802.75,4247.92 1769.5,4244C 1689.16,4230.64 1654.33,4183.47 1665,4102.5C 1674.39,4063.93 1697.89,4038.1 1735.5,4025C 1773.66,4013.12 1812.66,4009.46 1852.5,4014C 1861.25,4015.18 1869.91,4016.68 1878.5,4018.5C 1881.47,3974.96 1861.13,3952.46 1817.5,3951C 1792.33,3950.1 1767.33,3951.77 1742.5,3956C 1731.95,3958.06 1721.61,3960.89 1711.5,3964.5C 1709.91,3959.62 1708.74,3954.62 1708,3949.5C 1704.39,3926.81 1701.06,3904.14 1698,3881.5C 1728.39,3872.9 1759.22,3867.23 1790.5,3864.5 Z"/></g>
<g><path style="opacity:1" fill="#fefefe" d="M 2682.5,4090.5 C 2604.17,4090.5 2525.83,4090.5 2447.5,4090.5C 2447.26,4091.79 2447.6,4092.79 2448.5,4093.5C 2452.78,4119.87 2467.12,4138.7 2491.5,4150C 2516.31,4159.54 2541.98,4162.87 2568.5,4160C 2596.05,4157.98 2622.72,4152.14 2648.5,4142.5C 2649.19,4143.03 2649.69,4143.69 2650,4144.5C 2654.07,4171.59 2658.57,4198.59 2663.5,4225.5C 2661.27,4227.65 2658.6,4229.15 2655.5,4230C 2600.66,4247.71 2544.66,4253.05 2487.5,4246C 2402.36,4228.52 2354.19,4176.69 2343,4090.5C 2338.23,4050.75 2342.56,4012.08 2356,3974.5C 2390.7,3896.55 2450.87,3860.05 2536.5,3865C 2617.84,3874.67 2666.01,3919.84 2681,4000.5C 2685.11,4030.43 2685.61,4060.43 2682.5,4090.5 Z"/></g>
<g><path style="opacity:1" fill="#fefefe" d="M 3461.5,4090.5 C 3383.17,4090.5 3304.83,4090.5 3226.5,4090.5C 3226.26,4091.79 3226.6,4092.79 3227.5,4093.5C 3231.8,4119.9 3246.13,4138.74 3270.5,4150C 3295.31,4159.54 3320.98,4162.87 3347.5,4160C 3375.16,4158.44 3401.83,4152.6 3427.5,4142.5C 3428.19,4143.03 3428.69,4143.69 3429,4144.5C 3433.5,4171.52 3438,4198.52 3442.5,4225.5C 3440.27,4227.65 3437.6,4229.15 3434.5,4230C 3379.66,4247.71 3323.66,4253.05 3266.5,4246C 3184.85,4229.68 3137.02,4180.52 3123,4098.5C 3118.49,4063.83 3120.16,4029.49 3128,3995.5C 3149.99,3921.17 3199.16,3877.67 3275.5,3865C 3308.98,3861.97 3341.32,3866.64 3372.5,3879C 3410.57,3897.06 3436.73,3925.9 3451,3965.5C 3463.53,4006.36 3467.03,4048.03 3461.5,4090.5 Z"/></g>
<g><path style="opacity:1" fill="#fefefe" d="M 2177.5,3959.5 C 2175.5,4052.49 2174.84,4145.83 2175.5,4239.5C 2141.17,4239.5 2106.83,4239.5 2072.5,4239.5C 2072.5,4123.83 2072.5,4008.17 2072.5,3892.5C 2095.31,3885.64 2118.31,3879.47 2141.5,3874C 2197.97,3862.5 2253.97,3864.34 2309.5,3879.5C 2304.14,3908.32 2298.14,3936.99 2291.5,3965.5C 2272.84,3960.28 2253.84,3956.78 2234.5,3955C 2215.23,3953.48 2196.23,3954.98 2177.5,3959.5 Z"/></g>
<g><path style="opacity:1" fill="#fefefe" d="M 2951.5,4238.5 C 2922.17,4239.83 2892.83,4239.83 2863.5,4238.5C 2806.22,4121 2759.55,3999.34 2723.5,3873.5C 2760.17,3873.5 2796.83,3873.5 2833.5,3873.5C 2851.4,3940.02 2871.23,4006.02 2893,4071.5C 2897.74,4086.07 2903.08,4100.4 2909,4114.5C 2937.29,4035.46 2962.46,3955.46 2984.5,3874.5C 3020.17,3873.17 3055.83,3873.17 3091.5,3874.5C 3054.85,3999.8 3008.18,4121.13 2951.5,4238.5 Z"/></g>
<g><path style="opacity:1" fill="#3ec1a8" d="M 2584.5,4019.5 C 2539.17,4019.5 2493.83,4019.5 2448.5,4019.5C 2448.5,4018.5 2448.5,4017.5 2448.5,4016.5C 2455.89,3967.26 2484.23,3945.42 2533.5,3951C 2558.95,3957.79 2575.12,3973.95 2582,3999.5C 2583.44,4006.1 2584.28,4012.76 2584.5,4019.5 Z"/></g>
<g><path style="opacity:1" fill="#3ec1a8" d="M 3363.5,4019.5 C 3318.17,4019.5 3272.83,4019.5 3227.5,4019.5C 3227.5,4018.5 3227.5,4017.5 3227.5,4016.5C 3234.89,3967.26 3263.23,3945.42 3312.5,3951C 3337.95,3957.79 3354.12,3973.95 3361,3999.5C 3362.81,4006.05 3363.64,4012.72 3363.5,4019.5 Z"/></g>
<g><path style="opacity:1" fill="#68cfbb" d="M 2177.5,3959.5 C 2176.84,4052.93 2176.17,4146.26 2175.5,4239.5C 2174.84,4145.83 2175.5,4052.49 2177.5,3959.5 Z"/></g>
<g><path style="opacity:1" fill="#a4e2d6" d="M 2448.5,4016.5 C 2448.5,4017.5 2448.5,4018.5 2448.5,4019.5C 2493.83,4019.5 2539.17,4019.5 2584.5,4019.5C 2539,4020.5 2493.34,4020.83 2447.5,4020.5C 2447.23,4018.9 2447.57,4017.57 2448.5,4016.5 Z"/></g>
<g><path style="opacity:1" fill="#a4e2d6" d="M 3227.5,4016.5 C 3227.5,4017.5 3227.5,4018.5 3227.5,4019.5C 3272.83,4019.5 3318.17,4019.5 3363.5,4019.5C 3318,4020.5 3272.34,4020.83 3226.5,4020.5C 3226.23,4018.9 3226.57,4017.57 3227.5,4016.5 Z"/></g>
<g><path style="opacity:1" fill="#3ec1a8" d="M 1821.5,4081.5 C 1830.51,4081.33 1839.51,4081.5 1848.5,4082C 1858.49,4083.33 1868.49,4084.5 1878.5,4085.5C 1878.5,4111.83 1878.5,4138.17 1878.5,4164.5C 1856.26,4167.09 1833.92,4167.92 1811.5,4167C 1797.2,4165.91 1784.7,4160.74 1774,4151.5C 1766.85,4139.82 1764.52,4127.16 1767,4113.5C 1770.76,4100.83 1778.93,4092.33 1791.5,4088C 1801.38,4084.64 1811.38,4082.47 1821.5,4081.5 Z"/></g>
<g><path style="opacity:1" fill="#8cdacb" d="M 2682.5,4090.5 C 2604.33,4090.83 2526.33,4091.83 2448.5,4093.5C 2447.6,4092.79 2447.26,4091.79 2447.5,4090.5C 2525.83,4090.5 2604.17,4090.5 2682.5,4090.5 Z"/></g>
<g><path style="opacity:1" fill="#8cdacb" d="M 3461.5,4090.5 C 3383.33,4090.83 3305.33,4091.83 3227.5,4093.5C 3226.6,4092.79 3226.26,4091.79 3226.5,4090.5C 3304.83,4090.5 3383.17,4090.5 3461.5,4090.5 Z"/></g>
<g><path style="opacity:1" fill="#70d1be" d="M 2863.5,4238.5 C 2892.83,4239.83 2922.17,4239.83 2951.5,4238.5C 2937.18,4239.83 2922.52,4240.5 2907.5,4240.5C 2892.48,4240.5 2877.82,4239.83 2863.5,4238.5 Z"/></g>
</svg>
