<?xml version="1.0" encoding="UTF-8"?>
<!DOCTYPE svg PUBLIC "-//W3C//DTD SVG 1.1//EN" "http://www.w3.org/Graphics/SVG/1.1/DTD/svg11.dtd">
<svg xmlns="http://www.w3.org/2000/svg" version="1.1" width="512px" height="512px" style="shape-rendering:geometricPrecision; text-rendering:geometricPrecision; image-rendering:optimizeQuality; fill-rule:evenodd; clip-rule:evenodd" xmlns:xlink="http://www.w3.org/1999/xlink">
<g><path style="opacity:0.998" fill="#f3f4f8" d="M 232.5,-0.5 C 240.167,-0.5 247.833,-0.5 255.5,-0.5C 255.5,19.8333 255.5,40.1667 255.5,60.5C 250.5,60.5 245.5,60.5 240.5,60.5C 240.5,80.5 240.5,100.5 240.5,120.5C 245.5,120.5 250.5,120.5 255.5,120.5C 255.5,130.5 255.5,140.5 255.5,150.5C 211.879,152.551 180.045,172.885 160,211.5C 143.542,252.863 149.209,290.863 177,325.5C 198.143,348.276 224.31,359.943 255.5,360.5C 255.5,370.5 255.5,380.5 255.5,390.5C 250.5,390.5 245.5,390.5 240.5,390.5C 240.5,410.5 240.5,430.5 240.5,450.5C 245.5,450.5 250.5,450.5 255.5,450.5C 255.5,470.833 255.5,491.167 255.5,511.5C 248.167,511.5 240.833,511.5 233.5,511.5C 135.248,498.974 64.4151,448.308 21,359.5C 9.60385,333.501 2.43719,306.501 -0.5,278.5C -0.5,263.167 -0.5,247.833 -0.5,232.5C 10.4489,144.436 53.7822,77.6027 129.5,32C 161.76,14.1924 196.093,3.35906 232.5,-0.5 Z"/></g>
<g><path style="opacity:1" fill="#e1e5ef" d="M 255.5,-0.5 C 263.167,-0.5 270.833,-0.5 278.5,-0.5C 367.315,10.8019 434.482,54.8019 480,131.5C 497.171,163.212 507.671,196.879 511.5,232.5C 511.5,247.833 511.5,263.167 511.5,278.5C 501.356,361.992 461.356,426.826 391.5,473C 356.409,494.726 318.409,507.559 277.5,511.5C 270.167,511.5 262.833,511.5 255.5,511.5C 255.5,491.167 255.5,470.833 255.5,450.5C 260.5,450.5 265.5,450.5 270.5,450.5C 270.5,430.5 270.5,410.5 270.5,390.5C 265.5,390.5 260.5,390.5 255.5,390.5C 255.5,380.5 255.5,370.5 255.5,360.5C 271.066,360.606 285.733,357.273 299.5,350.5C 314.168,356.834 329.501,360.168 345.5,360.5C 392.68,358.469 425.514,335.802 444,292.5C 458.619,246.807 448.452,207.64 413.5,175C 393.8,158.82 371.133,150.654 345.5,150.5C 329.501,150.832 314.168,154.166 299.5,160.5C 285.733,153.727 271.066,150.394 255.5,150.5C 255.5,140.5 255.5,130.5 255.5,120.5C 260.5,120.5 265.5,120.5 270.5,120.5C 270.5,100.5 270.5,80.5 270.5,60.5C 265.5,60.5 260.5,60.5 255.5,60.5C 255.5,40.1667 255.5,19.8333 255.5,-0.5 Z"/></g>
<g><path style="opacity:1" fill="#febe3f" d="M 255.5,60.5 C 255.5,80.5 255.5,100.5 255.5,120.5C 250.5,120.5 245.5,120.5 240.5,120.5C 240.5,100.5 240.5,80.5 240.5,60.5C 245.5,60.5 250.5,60.5 255.5,60.5 Z"/></g>
<g><path style="opacity:1" fill="#fe9f3f" d="M 255.5,60.5 C 260.5,60.5 265.5,60.5 270.5,60.5C 270.5,80.5 270.5,100.5 270.5,120.5C 265.5,120.5 260.5,120.5 255.5,120.5C 255.5,100.5 255.5,80.5 255.5,60.5 Z"/></g>
<g><path style="opacity:1" fill="#febe42" d="M 169.5,79.5 C 170.496,79.4142 171.329,79.7476 172,80.5C 181.3,97.2953 190.8,113.962 200.5,130.5C 192.7,136.24 184.366,141.24 175.5,145.5C 164.759,129.029 154.759,112.029 145.5,94.5C 153.528,89.4891 161.528,84.4891 169.5,79.5 Z"/></g>
<g><path style="opacity:1" fill="#febe42" d="M 93.5,145.5 C 111.017,154.509 128.184,164.176 145,174.5C 141.476,183.375 136.976,191.875 131.5,200C 114.192,191.089 97.0255,181.589 80,171.5C 84.1721,162.827 88.6721,154.161 93.5,145.5 Z"/></g>
<g><path style="opacity:1" fill="#febe40" d="M 255.5,150.5 C 255.5,167.167 255.5,183.833 255.5,200.5C 235.553,237.136 235.553,273.802 255.5,310.5C 255.5,327.167 255.5,343.833 255.5,360.5C 224.31,359.943 198.143,348.276 177,325.5C 149.209,290.863 143.542,252.863 160,211.5C 180.045,172.885 211.879,152.551 255.5,150.5 Z"/></g>
<g><path style="opacity:1" fill="#fd9f41" d="M 255.5,150.5 C 271.066,150.394 285.733,153.727 299.5,160.5C 281.362,169.97 266.695,183.303 255.5,200.5C 255.5,183.833 255.5,167.167 255.5,150.5 Z"/></g>
<g><path style="opacity:1" fill="#4d5e7f" d="M 345.5,150.5 C 345.5,220.5 345.5,290.5 345.5,360.5C 329.501,360.168 314.168,356.834 299.5,350.5C 281.362,341.03 266.695,327.697 255.5,310.5C 235.553,273.802 235.553,237.136 255.5,200.5C 266.695,183.303 281.362,169.97 299.5,160.5C 314.168,154.166 329.501,150.832 345.5,150.5 Z"/></g>
<g><path style="opacity:1" fill="#3d4566" d="M 345.5,150.5 C 371.133,150.654 393.8,158.82 413.5,175C 448.452,207.64 458.619,246.807 444,292.5C 425.514,335.802 392.68,358.469 345.5,360.5C 345.5,290.5 345.5,220.5 345.5,150.5 Z"/></g>
<g><path style="opacity:1" fill="#febe3f" d="M 60.5,240.5 C 80.5,240.5 100.5,240.5 120.5,240.5C 120.5,250.5 120.5,260.5 120.5,270.5C 100.5,270.5 80.5,270.5 60.5,270.5C 60.5,260.5 60.5,250.5 60.5,240.5 Z"/></g>
<g><path style="opacity:1" fill="#febe42" d="M 129.5,310.5 C 131.624,311.031 133.124,312.365 134,314.5C 138.267,321.7 141.933,329.033 145,336.5C 128.411,346.546 111.578,356.213 94.5,365.5C 89.7491,358.334 85.2491,351 81,343.5C 80.0181,342.241 79.6848,340.908 80,339.5C 96.8095,330.185 113.31,320.519 129.5,310.5 Z"/></g>
<g><path style="opacity:1" fill="#fd9f41" d="M 255.5,310.5 C 266.695,327.697 281.362,341.03 299.5,350.5C 285.733,357.273 271.066,360.606 255.5,360.5C 255.5,343.833 255.5,327.167 255.5,310.5 Z"/></g>
<g><path style="opacity:1" fill="#febe42" d="M 174.5,365.5 C 182.561,369.366 190.561,373.532 198.5,378C 199.357,378.689 200.023,379.522 200.5,380.5C 190.752,397.665 180.752,414.665 170.5,431.5C 161.802,426.823 153.469,421.656 145.5,416C 155.045,399.074 164.712,382.24 174.5,365.5 Z"/></g>
<g><path style="opacity:1" fill="#febe3f" d="M 255.5,390.5 C 255.5,410.5 255.5,430.5 255.5,450.5C 250.5,450.5 245.5,450.5 240.5,450.5C 240.5,430.5 240.5,410.5 240.5,390.5C 245.5,390.5 250.5,390.5 255.5,390.5 Z"/></g>
<g><path style="opacity:1" fill="#fe9f3f" d="M 255.5,390.5 C 260.5,390.5 265.5,390.5 270.5,390.5C 270.5,410.5 270.5,430.5 270.5,450.5C 265.5,450.5 260.5,450.5 255.5,450.5C 255.5,430.5 255.5,410.5 255.5,390.5 Z"/></g>
</svg>
